<?xml version="1.0" encoding="UTF-8"?>
<!DOCTYPE svg PUBLIC "-//W3C//DTD SVG 1.1//EN" "http://www.w3.org/Graphics/SVG/1.1/DTD/svg11.dtd">
<!-- Creator: CorelDRAW -->
<svg xmlns="http://www.w3.org/2000/svg" xml:space="preserve" width="512px" height="512px" version="1.1" style="shape-rendering:geometricPrecision; text-rendering:geometricPrecision; image-rendering:optimizeQuality; fill-rule:evenodd; clip-rule:evenodd"
viewBox="0 0 512 512"
 xmlns:xlink="http://www.w3.org/1999/xlink">
 <defs>
  <style type="text/css">
   <![CDATA[
    .fil0 {fill:#5EAC24}
    .fil1 {fill:#96C970}
    .fil2 {fill:white}
   ]]>
  </style>
 </defs>
 <g id="Layer_x0020_1">
  <metadata id="CorelCorpID_0Corel-Layer"/>
  <g id="_328451152">
   <path class="fil0" d="M256 512c-141,0 -256,-115 -256,-256 0,-141 115,-256 256,-256 141,0 256,115 256,256 0,141 -115,256 -256,256z"/>
   <path class="fil1" d="M256 474c-120,0 -218,-98 -218,-218 0,-120 98,-218 218,-218 120,0 218,98 218,218 0,120 -97,218 -218,218z"/>
   <path class="fil2" d="M203 381c-2,0 -4,-1 -5,-2l-105 -104c-3,-3 -3,-8 0,-11l39 -38c1,-2 3,-2 5,-2 0,0 0,0 0,0 2,0 3,0 5,2l60 61 154 -154c3,-3 8,-3 11,0l38 39c2,1 2,3 2,5 0,1 0,3 -2,5l-197 197c-2,1 -3,2 -5,2z"/>
  </g>
 </g>
</svg>
